<?xml version="1.0" encoding="iso-8859-1"?>
<!-- Generator: Adobe Illustrator 19.0.0, SVG Export Plug-In . SVG Version: 6.00 Build 0)  -->
<svg version="1.1" id="Layer_1" xmlns="http://www.w3.org/2000/svg" xmlns:xlink="http://www.w3.org/1999/xlink" x="0px" y="0px"
	 viewBox="0 0 502.001 502.001" style="enable-background:new 0 0 502.001 502.001;" xml:space="preserve">
<g>
	<g>
		<path d="M83.497,0c-5.523,0-10,4.478-10,10v143.574c0,5.522,4.477,10,10,10h44.125V492c0,4.199,2.624,7.952,6.568,9.393
			c3.944,1.442,8.369,0.264,11.077-2.946L251,373.054l105.733,125.393c1.938,2.298,4.755,3.555,7.647,3.555
			c1.148,0,2.309-0.198,3.43-0.608c3.944-1.44,6.568-5.193,6.568-9.393V163.574h44.125c5.523,0,10-4.478,10-10V10
			c0-5.522-4.477-10-10-10H83.497z M127.053,143.574H93.497V20h33.556V143.574z M354.379,464.628l-95.733-113.533
			c-1.9-2.253-4.698-3.554-7.645-3.554s-5.745,1.301-7.645,3.554l-95.733,113.533V20h206.757V464.628z M408.504,143.574h-33.556V20
			h33.556V143.574z"/>
		<path d="M180.353,374.378c5.523,0,10-4.478,10-10v-47.857c0-5.522-4.477-10-10-10s-10,4.478-10,10v47.857
			C170.353,369.9,174.83,374.378,180.353,374.378z"/>
		<path d="M180.353,280.94c5.523,0,10-4.478,10-10V68.113c0-5.522-4.477-10-10-10s-10,4.478-10,10V270.94
			C170.353,276.463,174.83,280.94,180.353,280.94z"/>
	</g>
</g>
<g>
</g>
<g>
</g>
<g>
</g>
<g>
</g>
<g>
</g>
<g>
</g>
<g>
</g>
<g>
</g>
<g>
</g>
<g>
</g>
<g>
</g>
<g>
</g>
<g>
</g>
<g>
</g>
<g>
</g>
</svg>
