<?xml version="1.0" encoding="iso-8859-1"?>
<!-- Generator: Adobe Illustrator 19.0.0, SVG Export Plug-In . SVG Version: 6.00 Build 0)  -->
<svg version="1.1" id="Capa_1" xmlns="http://www.w3.org/2000/svg" xmlns:xlink="http://www.w3.org/1999/xlink" x="0px" y="0px"
	 viewBox="0 0 511.999 511.999" style="enable-background:new 0 0 511.999 511.999;" xml:space="preserve">
<g>
	<g>
		<path d="M361.023,130.027h75.015V75.016C436.038,33.652,402.385,0,361.022,0h-75.016v40.008h-60.013V0h-75.016
			c-41.364,0-75.016,33.652-75.016,75.016v55.012h101.021v103.115l-30.043,23.002l18.24,23.825l11.804-9.037v65.732l-30.043,23.002
			l18.24,23.825l11.804-9.037v65.732l-30.043,23.002l18.24,23.825l29.092-22.274L256,511.999l79.017-60.497v-94.52l30.043-23.002
			l-18.24-23.825l-11.803,9.037V253.46l30.043-23.002l-18.24-23.825l-11.803,9.037v-65.732L361.023,130.027z M305.01,436.685
			L256,474.209l-37.048-28.365l86.058-65.888V436.685z M305.01,342.165l-98.021,75.047V351.48l98.021-75.047V342.165z
			 M305.01,238.643l-98.021,75.047v-65.732l98.021-75.047V238.643z M305.01,135.122l-98.021,75.047v-80.141h98.021V135.122z
			 M105.968,100.021V75.016c0-24.818,20.191-45.009,45.009-45.009h45.01v40.008h120.025V30.006h45.01
			c24.818,0,45.009,20.191,45.009,45.009v25.005H105.968z"/>
	</g>
</g>
<g>
</g>
<g>
</g>
<g>
</g>
<g>
</g>
<g>
</g>
<g>
</g>
<g>
</g>
<g>
</g>
<g>
</g>
<g>
</g>
<g>
</g>
<g>
</g>
<g>
</g>
<g>
</g>
<g>
</g>
</svg>
